HIERARCHY
ROOT Hips
{
	OFFSET 0.000000 0.000000 0.000000
	CHANNELS 6 Xposition Yposition Zposition Zrotation Yrotation Xrotation 
	JOINT LHipJoint
	{
		OFFSET 0.000000 0.000000 0.000000
		CHANNELS 3 Zrotation Yrotation Xrotation
		JOINT LeftUpLeg
		{
			OFFSET 1.363060 -1.794630 0.839290
			CHANNELS 3 Zrotation Yrotation Xrotation
			JOINT LeftLeg
			{
				OFFSET 2.448110 -6.726130 0.000000
				CHANNELS 3 Zrotation Yrotation Xrotation
				JOINT LeftFoot
				{
					OFFSET 2.562200 -7.039590 0.000000
					CHANNELS 3 Zrotation Yrotation Xrotation
					JOINT LeftToeBase
					{
						OFFSET 0.157640 -0.433110 2.322550
						CHANNELS 3 Zrotation Yrotation Xrotation
						End Site
						{
							OFFSET 0.000000 0.000000 0.000000
						}
					}
				}
			}
		}
	}
	JOINT RHipJoint
	{
		OFFSET 0.000000 0.000000 0.000000
		CHANNELS 3 Zrotation Yrotation Xrotation
		JOINT RightUpLeg
		{
			OFFSET -1.305520 -1.794630 0.839290
			CHANNELS 3 Zrotation Yrotation Xrotation
			JOINT RightLeg
			{
				OFFSET -2.542530 -6.985550 0.000000
				CHANNELS 3 Zrotation Yrotation Xrotation
				JOINT RightFoot
				{
					OFFSET -2.568260 -7.056230 0.000000
					CHANNELS 3 Zrotation Yrotation Xrotation
					JOINT RightToeBase
					{
						OFFSET -0.164730 -0.452590 2.363150
						CHANNELS 3 Zrotation Yrotation Xrotation
						End Site
						{
							OFFSET 0.000000 0.000000 0.000000
						}
					}
				}
			}
		}
	}
}
MOTION
Frames: 22
Frame Time: 0.008333
16.324072 19.511399 0.879456 22.619263 -82.350435 -2.110052 -10.364296 3.455459 8.222939 -3.693803 -25.972183 -18.375108 1.181851 1.347497 41.346807 2.314590 9.537988 28.660742 4.612400 0.000000 -65.537000 10.348325 -3.285098 4.690126 5.861456 11.939004 -11.813128 -0.946262 -1.743930 32.013734 -1.080373 -4.086547 21.122835 -1.868899 0.000000 -82.734400
16.179990 19.739478 0.863941 22.255035 -82.517457 -2.398046 -10.485102 3.372453 8.089359 -4.122024 -25.868908 -18.910845 1.280041 1.573564 46.730527 2.429419 10.270490 27.706289 4.845800 0.000000 -64.376400 10.418277 -3.169835 4.766870 6.127924 13.048523 -12.563566 -1.201106 -1.997158 38.219911 -1.317526 -5.476690 18.426922 -2.258100 0.000000 -81.584300
16.043342 19.946187 0.845603 22.438936 -82.692173 -3.242747 -10.614169 3.310727 7.916114 -4.677394 -25.626616 -19.530973 1.402228 1.855739 52.544772 2.562302 11.378363 26.481277 5.235299 -0.000000 -63.488000 10.566970 -3.061786 4.795325 6.314303 13.886972 -13.505413 -1.454111 -2.290683 45.096975 -1.554303 -6.906142 15.345236 -2.509000 -0.000000 -80.257701
15.912859 20.132406 0.824672 23.159267 -82.879326 -4.616556 -10.755072 3.279240 7.710171 -5.300919 -25.254940 -20.210979 1.563754 2.190657 58.618700 2.710129 12.743769 25.144728 5.713000 -0.000000 -62.628200 10.790054 -2.982829 4.785566 6.394008 14.478117 -14.547964 -1.720980 -2.624860 52.346855 -1.772862 -8.283400 12.150121 -2.591400 -0.000000 -78.747800
15.787091 20.299882 0.801867 24.284386 -83.078246 -6.368539 -10.913625 3.279922 7.481019 -5.912072 -24.768902 -20.948610 1.779431 2.569165 64.812348 2.866491 14.231780 23.824687 6.212800 -0.000000 -61.768800 11.076027 -2.944531 4.750239 6.362213 14.869981 -15.633944 -2.025375 -2.997053 59.744730 -1.958790 -9.530229 9.033087 -2.510399 0.000000 -77.271799
15.664811 20.450594 0.777936 25.646525 -83.286441 -8.312785 -11.095522 3.308900 7.239719 -6.430021 -24.191854 -21.756960 2.061527 2.979647 71.023159 3.021337 15.701088 22.607864 6.675900 0.000001 -60.873700 11.413006 -2.948818 4.702086 6.219710 15.119079 -16.741495 -2.391880 -3.402919 67.154327 -2.100342 -10.566643 6.088296 -2.286700 0.000000 -75.913200
15.544952 20.586747 0.753553 27.093784 -83.503096 -10.282221 -11.305326 3.358417 6.997117 -6.788120 -23.555440 -22.652394 2.419264 3.410549 77.179182 3.162486 17.015361 21.544372 7.054000 -0.000000 -59.803401 11.790919 -2.991478 4.652381 5.966583 15.283298 -17.866818 -2.842561 -3.837292 74.500274 -2.189396 -11.323077 3.334924 -1.950900 0.000000 -74.617400
15.426727 20.709624 0.729228 28.511076 -83.730412 -12.152383 -11.545192 3.417755 6.762980 -6.939760 -22.902330 -23.637624 2.856928 3.850368 83.216418 3.280593 18.072273 20.700019 7.328700 -0.000000 -58.782400 12.201161 -3.064162 4.609464 5.601874 15.419299 -19.004436 -3.396200 -4.293744 81.728991 -2.224297 -11.765677 0.766126 -1.544200 -0.000000 -73.524799
15.309516 20.820884 0.705375 29.805348 -83.971112 -13.829131 -11.815608 3.476686 6.544867 -6.856201 -22.278429 -24.699640 3.375058 4.290101 89.082270 3.366658 18.783965 20.119602 7.489100 0.000001 -57.856600 12.635830 -3.158287 4.578311 5.126877 15.577392 -20.136073 -4.067741 -4.765925 88.799703 -2.206659 -11.884841 -1.663414 -1.104099 -0.000000 -72.512500
15.192893 20.921544 0.682436 30.884599 -84.226680 -15.225865 -12.115283 3.526092 6.349917 -6.521654 -21.736123 -25.807723 3.969100 4.722227 94.720154 3.413934 19.085438 19.854540 7.534800 0.000000 -57.171901 13.086086 -3.265470 4.559867 4.544704 15.795264 -21.229019 -4.867634 -5.245715 95.661799 -2.143571 -11.710424 -3.997757 -0.666700 0.000000 -71.456700
15.076652 21.012829 0.660943 31.649522 -84.499321 -16.258092 -12.440556 3.559060 6.181004 -5.933893 -21.329172 -26.907397 4.627357 5.141114 100.061411 3.418364 18.937447 19.975171 7.475901 0.000000 -56.861900 13.539564 -3.377689 4.554391 3.866445 16.125866 -22.222957 -5.799041 -5.722750 102.243596 -2.045641 -11.296659 -6.251710 -0.263900 0.000000 -70.426900
14.960559 21.095423 0.641531 31.956445 -84.785543 -16.797487 -12.787875 3.572886 6.044419 -5.089393 -21.113382 -27.946321 5.333205 5.543248 105.036740 3.374887 18.295927 20.518834 7.298200 -0.000000 -56.982500 13.980821 -3.489159 4.559845 3.104789 16.597272 -23.064179 -6.854371 -6.183943 108.464741 -1.926317 -10.717929 -8.439030 0.085101 0.000000 -69.277800
14.844300 21.170470 0.624920 31.633812 -85.083041 -16.687553 -13.152498 3.568875 5.944744 -3.989341 -21.138393 -28.871114 6.062286 5.926554 109.564107 3.279216 17.123210 21.506170 6.968300 0.000000 -57.503000 14.389364 -3.594996 4.575901 2.281331 17.243235 -23.701087 -8.009618 -6.613582 114.226351 -1.800974 -10.057304 -10.536549 0.370300 -0.000000 -67.949899
14.727696 21.239137 0.611834 30.513502 -85.374275 -15.769453 -13.527152 3.552620 5.892862 -2.646242 -21.459911 -29.653191 6.788276 6.291344 113.574134 3.126807 15.379547 22.890601 6.418000 -0.000000 -58.218700 14.745911 -3.690193 4.599688 1.404171 18.063066 -24.121546 -9.223099 -6.995655 119.431041 -1.684166 -9.390919 -12.501422 0.593100 0.000000 -66.414699
14.610396 21.301698 0.602697 28.449582 -85.642202 -13.905410 -13.902094 3.531666 5.894104 -1.084348 -22.109396 -30.276076 7.479204 6.637865 116.994636 2.918616 13.065436 24.601195 5.580500 0.000000 -58.953400 15.029625 -3.770892 4.631731 0.498931 19.063415 -24.331274 -10.432416 -7.317170 123.975489 -1.589563 -8.793599 -14.261791 0.761400 -0.000000 -64.817300
14.491926 21.358973 0.597513 25.393241 -85.859437 -11.050862 -14.263418 3.514248 5.952074 0.650507 -23.098286 -30.744994 8.103623 6.965418 119.772899 2.661552 10.226825 26.509751 4.400400 -0.000000 -59.494700 15.226030 -3.835025 4.668883 -0.405840 20.216209 -24.369796 -11.561492 -7.572220 127.770914 -1.527459 -8.331970 -15.754465 0.890700 -0.000000 -63.298300
14.372092 21.410744 0.595506 21.506451 -85.992877 -7.376625 -14.590809 3.506192 6.065980 2.485407 -24.410159 -31.082444 8.630587 7.270134 121.878081 2.372023 6.989246 28.465353 2.876900 -0.000000 -59.747900 15.332658 -3.881484 4.703196 -1.277813 21.458049 -24.298404 -12.532610 -7.764315 130.753810 -1.504185 -8.063675 -16.945948 0.999699 -0.000000 -61.991901
14.250523 21.456791 0.595393 17.192307 -86.015150 -3.291608 -14.860223 3.509889 6.229709 4.328155 -25.994211 -31.322426 9.031334 7.544095 123.303782 2.075467 3.565008 30.315218 1.089000 -0.000000 -59.719799 15.358973 -3.909871 4.723709 -2.076536 22.697257 -24.182599 -13.277183 -7.904077 132.886377 -1.522727 -8.036326 -17.850701 1.108400 -0.000000 -60.961400
14.127128 21.496641 0.595637 13.003644 -85.915785 0.642519 -15.049298 3.523238 6.432492 6.080334 -27.767390 -31.504099 9.281543 7.777009 124.064458 1.802849 0.240849 31.934302 -0.797900 -0.000000 -59.558500 15.322679 -3.917572 4.718182 -2.756891 23.827390 -24.079915 -13.747287 -8.004172 134.163257 -1.582953 -8.278852 -18.529099 1.235700 -0.000001 -60.179500
14.001701 21.530225 0.594875 9.433261 -85.706154 3.931227 -15.145303 3.539717 6.661406 7.655529 -29.624061 -31.664720 9.365861 7.958588 124.191017 1.584602 -2.659432 33.239739 -2.554900 -0.000000 -59.521299 15.240257 -3.900543 4.677781 -3.277404 24.752761 -24.031939 -13.917610 -8.073449 134.600873 -1.680661 -8.789414 -19.067512 1.396200 0.000000 -59.546800
13.874054 21.557536 0.592327 6.719197 -85.409164 6.343904 -15.148984 3.547662 6.906158 9.001245 -31.454742 -31.846084 9.281608 8.080112 123.723054 1.444545 -4.828446 34.187533 -3.936100 0.000000 -59.846500 15.121173 -3.854501 4.601725 -3.614670 25.407579 -24.073529 -13.786305 -8.114355 134.233282 -1.805580 -9.521636 -19.548101 1.597100 0.000001 -58.943600
13.744499 21.578963 0.587824 4.822191 -85.059510 7.921475 -15.070509 3.533767 7.147532 10.077878 -33.150840 -32.043554 9.036889 8.133508 122.697346 1.396095 -6.017716 34.758321 -4.727599 0.000000 -60.758900 14.965415 -3.779123 4.493773 -3.758304 25.779476 -24.202766 -13.370317 -8.125113 133.098586 -1.941405 -10.384200 -20.028709 1.836000 0.000001 -58.235301
